Coordinates
version=1
nRows=17
nColumns=36
inDegrees=yes

Units are S.I. units (second, meters, Newtons, ...)
If the header above contains a line with 'inDegrees', this indicates whether rotational values are in degrees (yes) or radians (no).

endheader
time	pelvis_tilt	pelvis_list	pelvis_rotation	pelvis_tx	pelvis_ty	pelvis_tz	hip_flexion_r	hip_adduction_r	hip_rotation_r	knee_angle_r	knee_angle_r_beta	ankle_angle_r	subtalar_angle_r	mtp_angle_r	hip_flexion_l	hip_adduction_l	hip_rotation_l	knee_angle_l	knee_angle_l_beta	ankle_angle_l	subtalar_angle_l	mtp_angle_l	lumbar_extension	lumbar_bending	lumbar_rotation	arm_flex_r	arm_add_r	arm_rot_r	elbow_flex_r	pro_sup_r	arm_flex_l	arm_add_l	arm_rot_l	elbow_flex_l	pro_sup_l
      1.03000000	     -2.51212655	      1.73158403	      0.39330382	      1.09785831	      0.92272598	     -0.26881555	     27.23190394	      0.13377913	      1.21926787	      8.53244215	      0.14891921	      3.92392997	     -8.21421401	     -7.35717478	     -9.56965362	      6.12082510	      6.52430464	      5.32246813	      0.09289459	     15.27666242	      0.90643650	     -7.35717478	     -4.30812095	     -0.53933662	     -8.58236699	    -17.97965390	     -5.73070421	    -13.44941249	     30.94900461	     99.90136246	      7.69735342	    -10.42033766	    -11.53898014	     50.44140856	    101.06840742
      1.04000000	     -2.06410341	      1.59176117	      0.74621308	      1.11007997	      0.92132256	     -0.26847723	     26.61148723	      0.08602192	     -0.77829974	      6.08836122	      0.10626195	      5.94816044	     -2.84763578	     -7.36655484	    -10.81566869	      5.77657236	      6.13346781	      5.48860053	      0.09579415	     16.07449747	      2.24997557	     -7.36655484	     -4.93295132	     -0.35432617	     -8.95561676	    -18.41391827	     -5.56382465	    -14.70597401	     30.96796962	    100.19759258	      8.28375840	    -10.64754748	    -11.39588109	     51.02850794	    101.16315479
      1.05000000	     -1.98640587	      1.39419130	      1.10537101	      1.12218569	      0.91949151	     -0.26785953	     26.18746655	      0.27118931	     -1.41421430	      3.70818047	      0.06471996	      6.00088250	     -1.13470022	     -7.36804930	    -11.56794078	      5.38646969	      6.32699467	      5.85845481	      0.10224933	     16.23790253	      2.36062049	     -7.36804930	     -5.10527842	     -0.15456381	     -9.26594824	    -18.79569716	     -5.52250684	    -14.99226459	     30.57841606	    100.20706204	      8.81095761	    -10.80611138	    -11.27876638	     51.52264663	    101.21743136
      1.06000000	     -1.55845309	      1.17014853	      1.42053998	      1.13474034	      0.91805182	     -0.26728307	     25.68740130	      0.42269056	     -3.29314761	      2.59800988	      0.04534383	      7.56622333	      2.92071112	     -7.37583506	    -12.73561875	      4.93917694	      6.06460874	      6.16038434	      0.10751899	     16.81873242	      3.26801978	     -7.37583506	     -5.63536881	      0.10554336	     -9.60434316	    -19.06044472	     -5.39499196	    -16.01136059	     30.24541688	    100.37738799	      9.22334079	    -10.98248360	    -11.15727376	     52.04997007	    101.21878465
      1.07000000	     -1.34910469	      0.88416835	      1.68329150	      1.14722780	      0.91638255	     -0.26649656	     25.29720661	      0.76072107	     -3.85954023	      1.78686129	      0.03118661	      7.69356771	      3.66688304	     -7.37743300	    -13.57684495	      4.46796535	      6.14554751	      6.65223743	      0.11610345	     16.98290596	      3.20806803	     -7.37743300	     -5.90644154	      0.42254400	     -9.81039126	    -19.29589643	     -5.37599161	    -16.31720257	     29.69641279	    100.36423754	      9.61202109	    -11.08336164	    -11.04288380	     52.45978005	    101.24966142
      1.08000000	     -1.06286642	      0.57981694	      1.92471483	      1.16007970	      0.91485939	     -0.26566970	     24.85853869	      1.12239696	     -4.50036685	      1.62970150	      0.02844366	      7.92939032	      4.16519197	     -7.37921212	    -14.52057563	      3.96993624	      6.12027670	      7.11162736	      0.12412131	     17.10737241	      3.21977523	     -7.37921212	     -6.22296523	      0.73815788	     -9.99906536	    -19.43920917	     -5.34953461	    -16.72706893	     29.00935642	    100.32404630	      9.88246794	    -11.15222972	    -10.92921215	     52.86249864	    101.27084099
      1.09000000	     -0.85704183	      0.23492402	      2.14062723	      1.17318607	      0.91330122	     -0.26478598	     24.48051588	      1.53540724	     -4.75294664	      1.94074295	      0.03387235	      7.96849179	      4.07765892	     -7.38030346	    -15.33936877	      3.44357728	      6.18266219	      7.67553090	      0.13396329	     17.04262595	      3.17535180	     -7.38030346	     -6.39152845	      1.11525412	    -10.11824209	    -19.62597425	     -5.34920812	    -17.02525445	     28.41478559	    100.27597789	     10.07892443	    -11.13708140	    -10.85930422	     53.18166223	    101.28732213
      1.10000000	     -0.59940792	     -0.15041243	      2.30865383	      1.18659315	      0.91189422	     -0.26382872	     24.07157901	      2.01040193	     -4.91035026	      2.69342476	      0.04700913	      7.69120887	      3.59477975	     -7.38131361	    -16.19784405	      2.88585298	      6.15301935	      8.27688544	      0.14445890	     16.90219509	      3.04023307	     -7.38131361	     -6.58633346	      1.53533358	    -10.21309724	    -19.73279451	     -5.36313909	    -17.35856749	     27.72593220	    100.20818353	     10.15111291	    -11.10670914	    -10.78382016	     53.44691872	    101.29818866
      1.11000000	     -0.44420781	     -0.52792999	      2.42628128	      1.20021946	      0.91047148	     -0.26286676	     23.75142973	      2.48203740	     -4.75107164	      3.66942590	      0.06404356	      7.21927668	      3.15638424	     -7.38184793	    -16.93830376	      2.36544206	      6.28981252	      8.92176911	      0.15571425	     16.62991632	      2.95376267	     -7.38184793	     -6.61403166	      1.97543721	    -10.27170164	    -19.86749986	     -5.41092144	    -17.58063466	     27.21500344	    100.15387832	     10.10786362	    -11.02522426	    -10.72543055	     53.60000823	    101.30557032
      1.12000000	     -0.33090519	     -0.94276356	      2.54754135	      1.21409977	      0.90921034	     -0.26162690	     23.44892078	      3.09791690	     -4.46875539	      4.62234811	      0.08067519	      4.73843678	     -0.26371933	     -7.38705308	    -17.49227200	      1.78573553	      5.97074741	      9.78151319	      0.17071961	     16.02331707	      2.32707339	     -7.38705308	     -6.52730608	      2.36019301	    -10.34854294	    -19.54702695	     -5.32896507	    -18.50056199	     25.54953297	     99.91654613	      9.85102217	    -10.96820566	    -10.73789185	     53.98326387	    101.21753933
      1.13000000	     -0.21613690	     -1.35473914	      2.61251900	      1.22818196	      0.90811313	     -0.26054224	     23.15085801	      3.63980085	     -4.39389512	      5.72214069	      0.09987020	      3.90095174	     -0.53400665	     -7.38755675	    -18.08091937	      1.24810770	      6.08368929	     10.62415657	      0.18542651	     15.51870903	      2.23669932	     -7.38755675	     -6.46146114	      2.83920087	    -10.27943156	    -19.72121827	     -5.39699378	    -18.59053142	     25.23658668	     99.88126550	      9.64163795	    -10.77874996	    -10.69478607	     54.03817776	    101.21442570
      1.14000000	     -0.14056668	     -1.84210576	      2.72496480	      1.24250637	      0.90729855	     -0.25941631	     23.02086433	      4.22951777	     -5.41977450	      6.90742424	      0.12055730	      1.51443992	     -1.86793435	     -7.38898649	    -18.31781497	      0.57835035	      5.30166820	     11.95923259	      0.20872798	     14.41777057	      1.71230271	     -7.38898649	     -6.29035919	      3.35395491	    -10.17922446	    -19.71725429	     -5.38886882	    -18.89320593	     24.27236818	     99.75802167	      9.32414540	    -10.51146355	    -10.67376874	     54.13568521	    101.18966191
      1.15000000	     -0.27688188	     -2.34130116	      2.74048697	      1.25667456	      0.90669515	     -0.25793484	     22.66181382	      5.04329037	     -4.52825515	      7.12499439	      0.12435461	     -2.30565961	     -5.55431489	     -7.39451188	    -18.29609741	     -0.05860113	      5.12006947	     13.32987799	      0.23265026	     13.30609678	      1.20636992	     -7.39451188	     -5.85355511	      3.83576210	    -10.25335381	    -19.32478387	     -5.48411620	    -18.96911022	     22.92148006	     99.48227447	      8.74963257	    -10.29985945	    -11.00186106	     54.19467342	    101.03739898
      1.16000000	     -0.17121861	     -2.90099185	      2.78934888	      1.27106229	      0.90667615	     -0.25672961	     22.24997821	      5.74819770	     -5.07965273	      7.87981476	      0.13752871	     -3.75056265	     -5.85584095	     -7.39582342	    -18.35985411	     -0.80248618	      4.56443668	     14.95726283	      0.26105348	     11.96945255	      1.05183390	     -7.39582342	     -5.71190182	      4.47302923	    -10.12952359	    -19.30819060	     -5.55297955	    -18.97452494	     22.45809311	     99.39556195	      8.28513815	     -9.96910378	    -11.03158440	     54.09286693	    100.99766969
      1.17000000	     -0.05459031	     -3.46505027	      2.83104099	      1.28529696	      0.90712151	     -0.25546620	     21.75661372	      6.48560879	     -5.32721575	      8.57149735	      0.14960085	     -4.88672278	     -6.43991350	     -7.39686244	    -18.22959422	     -1.55947297	      4.09617661	     16.88693451	      0.29473261	     10.42717177	      0.92586310	     -7.39686244	     -5.61435449	      5.09814433	     -9.99742246	    -19.12996040	     -5.59560215	    -19.01156148	     21.92311783	     99.30347062	      7.80235207	     -9.60960219	    -11.13865863	     53.90474410	    100.94967043
      1.18000000	      0.03301333	     -4.07188558	      2.78248723	      1.29945381	      0.90795070	     -0.25410651	     21.25801351	      7.32657674	     -5.22890263	      9.28254706	      0.16201101	     -5.83149784	     -7.55044372	     -7.39815259	    -17.86730551	     -2.36135152	      3.47092332	     19.09940620	      0.33334752	      8.57093667	      0.76003145	     -7.39815259	     -5.47324891	      5.76484250	     -9.83735024	    -18.80717858	     -5.69351475	    -19.01136861	     21.31861084	     99.18557628	      7.22256302	     -9.18695212	    -11.37374326	     53.61953678	    100.88078892
      1.19000000	      0.04070677	     -4.67284690	      2.64188327	      1.31328043	      0.90913483	     -0.25250111	     20.68305278	      8.33484233	     -3.92323111	      9.73627116	      0.16992999	     -7.98220644	    -11.20587061	     -7.40448248	    -17.21584146	     -3.11679997	      3.05351314	     21.59285542	      0.37686642	      6.39989079	      0.25784741	     -7.40448248	     -5.29705570	      6.38823063	     -9.78402878	    -18.14587569	     -5.91171556	    -18.15810848	     20.28976040	     98.74968259	      6.44105788	     -8.68435878	    -12.17505802	     53.50478316	    100.75174721
